<svg width="85" height="100" viewBox="0 0 85 100" fill="none" xmlns="http://www.w3.org/2000/svg">
<path d="M84.3649 29.057H0V56.6423C0 56.7196 0.00858909 56.7969 0.0114521 56.8742C0.00572606 57.1806 0 57.4869 0 57.7932C0 81.104 18.8845 100 42.181 100C65.4775 100 84.3649 81.104 84.3649 57.7932C84.3649 57.4869 84.3592 57.1806 84.3535 56.8742C84.3563 56.7969 84.3649 56.7225 84.3649 56.6423V29.057Z" fill="#801619"/>
<path d="M84.3649 26.4573V7.1089C84.3649 3.18369 81.1841 0 77.2589 0H7.10604C3.18083 0 0 3.18369 0 7.1089V26.4544H84.3649V26.4573Z" fill="#801619"/>
<path d="M60.3109 74.138C60.7432 77.963 59.9702 81.8997 57.9919 85.3267C54.7395 90.9583 48.6813 94.4569 42.1794 94.4569C35.6774 94.4569 29.6164 90.9583 26.3668 85.3267C23.1173 79.6951 23.1173 72.6979 26.3668 67.0692C29.6164 61.4376 35.6774 57.939 42.1794 57.939C47.1668 57.939 51.8936 59.9975 55.292 63.499L54.9771 63.8139L54.101 64.69C51.0147 61.5006 46.7173 59.6253 42.1822 59.6253C36.2815 59.6253 30.7816 62.8004 27.8327 67.9109C24.8809 73.0214 24.8809 79.3716 27.8327 84.4821C30.7845 89.5926 36.2815 92.7677 42.1822 92.7677C48.0829 92.7677 53.5828 89.5926 56.5317 84.4821C58.0892 81.7823 58.825 78.7389 58.7363 75.7127L60.1077 74.3413L60.3109 74.138ZM62.1261 60.3296L56.9984 65.4516L56.4573 65.9927L55.7873 66.6598L43.6052 78.8305L35.2222 70.4475L30.9735 74.6734L43.5937 87.3137L57.279 73.6427L66.3548 64.5755V64.5554L62.129 60.3296H62.1261Z" fill="white"/>
<path d="M26.5515 51.0592C26.5515 49.851 27.4792 48.9863 28.7274 48.9863C29.4203 48.9863 29.9986 49.2383 30.3765 49.6964L29.781 50.2461C29.5119 49.9369 29.1741 49.7765 28.7732 49.7765C28.0231 49.7765 27.4906 50.3033 27.4906 51.0592C27.4906 51.815 28.0231 52.3418 28.7732 52.3418C29.1741 52.3418 29.5119 52.1815 29.781 51.8666L30.3765 52.4163C29.9986 52.8801 29.4203 53.132 28.7217 53.132C27.4792 53.132 26.5515 52.2674 26.5515 51.0592ZM34.1042 52.3189V53.0633H31.0007V49.0551H34.0298V49.7994H31.9226V50.6698H33.7836V51.3913H31.9226V52.3189H34.1042ZM37.3967 53.0633L36.6237 51.9467H35.7705V53.0633H34.8429V49.0551H36.5779C37.6486 49.0551 38.3186 49.6105 38.3186 50.5095C38.3186 51.1107 38.0151 51.5516 37.494 51.7749L38.393 53.0633H37.3967ZM36.5263 49.8109H35.7705V51.2081H36.5263C37.0932 51.2081 37.3795 50.9447 37.3795 50.5095C37.3795 50.0743 37.0932 49.8109 36.5263 49.8109ZM39.8188 49.8109H38.5362V49.0551H42.0291V49.8109H40.7464V53.0633H39.8188V49.8109ZM42.5272 49.0551H43.4549V53.0633H42.5272V49.0551ZM45.333 49.7994V50.8588H47.1883V51.6032H45.333V53.0633H44.4054V49.0551H47.4345V49.7994H45.333ZM48.0643 49.0551H48.992V53.0633H48.0643V49.0551ZM53.046 52.3189V53.0633H49.9425V49.0551H52.9716V49.7994H50.8644V50.6698H52.7254V51.3913H50.8644V52.3189H53.046ZM53.7847 49.0551H55.6056C56.9168 49.0551 57.8158 49.8453 57.8158 51.0592C57.8158 52.2731 56.9168 53.0633 55.6056 53.0633H53.7847V49.0551ZM55.5598 52.3017C56.3557 52.3017 56.8768 51.8265 56.8768 51.0592C56.8768 50.2919 56.3557 49.8166 55.5598 49.8166H54.7123V52.3017H55.5598ZM26.1106 44.6489L26.0791 33.4945H23.9605L19.8492 40.4259L15.6749 33.4945H13.5391V44.6489H15.9612V38.0982L19.2279 43.4693H20.3932L23.6771 37.9551L23.6914 44.6489H26.1135H26.1106ZM29.8755 44.4857C30.7058 44.7262 31.5676 44.8464 32.4322 44.8435C33.3197 44.8693 34.2044 44.709 35.029 44.3797C35.6732 44.1249 36.2286 43.6897 36.6294 43.1257C36.9816 42.6132 37.1677 42.0034 37.1648 41.3821C37.1991 40.7408 36.9901 40.1081 36.5836 39.6128C36.2057 39.1833 35.7247 38.8569 35.1893 38.6594C34.505 38.416 33.8093 38.2128 33.1021 38.0553C32.478 37.935 31.8653 37.7489 31.2784 37.5056C30.9205 37.3768 30.68 37.0332 30.68 36.6524C30.68 36.2745 30.8747 35.9223 31.1982 35.7276C31.6878 35.4585 32.2432 35.3383 32.7987 35.3755C33.8866 35.3927 34.9517 35.6962 35.885 36.2544L36.6809 34.2961C36.1284 33.9583 35.5271 33.7121 34.8973 33.5632C34.2159 33.3914 33.5144 33.3055 32.8101 33.3084C31.9254 33.2826 31.0436 33.4401 30.2191 33.7693C29.5806 34.0241 29.0309 34.4565 28.6358 35.0176C28.2865 35.5387 28.1033 36.1514 28.109 36.7784C28.0747 37.4254 28.2837 38.061 28.6931 38.5649C29.0681 38.9972 29.5463 39.3293 30.0845 39.5269C30.7688 39.7702 31.4645 39.9735 32.1717 40.131C32.7185 40.257 33.1565 40.3743 33.4801 40.4831C33.7692 40.5719 34.0412 40.715 34.2789 40.904C34.4793 41.0643 34.5938 41.3077 34.5881 41.5654C34.5881 41.929 34.3848 42.2639 34.0613 42.4329C33.5574 42.6848 32.9962 42.7993 32.4351 42.7593C31.7651 42.7593 31.098 42.6505 30.4596 42.4386C29.8497 42.2525 29.2743 41.9662 28.7532 41.5969L27.8743 43.5437C28.4726 43.9732 29.1454 44.291 29.8583 44.4799M40.5918 43.6296V39.4868H46.3608V38.4819H40.5918V34.5137H47.0623V33.4945H39.4123V44.6489H47.2999V43.6296H40.589H40.5918ZM51.8636 44.0047C52.7798 44.5 53.8104 44.7548 54.8526 44.7376C55.6399 44.7462 56.4215 44.603 57.1545 44.3167C57.8359 44.0533 58.4514 43.6353 58.9496 43.0999L58.2023 42.3527C57.3406 43.246 56.1438 43.7327 54.9041 43.6897C54.0624 43.7012 53.2321 43.4922 52.4963 43.0856C51.7892 42.6991 51.2051 42.1237 50.8014 41.4279C49.9826 39.9621 49.9826 38.1755 50.8014 36.7125C51.2051 36.0168 51.792 35.4442 52.4963 35.0548C53.2321 34.6483 54.0624 34.4393 54.9041 34.4507C56.141 34.4135 57.3348 34.8916 58.2023 35.7706L58.9496 35.0233C58.4543 34.4908 57.8445 34.0757 57.1659 33.8151C55.4367 33.1681 53.5127 33.2826 51.875 34.1329C51.0018 34.6025 50.2775 35.3068 49.7793 36.1657C48.7715 37.9723 48.7715 40.1739 49.7793 41.9834C50.2746 42.8394 50.9961 43.5437 51.8665 44.0161M70.1927 39.8504C70.605 40.3658 70.8168 41.0157 70.7911 41.6742C70.834 42.5417 70.4361 43.3719 69.7318 43.8816C68.7955 44.4599 67.699 44.729 66.6025 44.6546H61.4691V33.5002H66.2818C67.301 33.4372 68.3146 33.7006 69.1735 34.2475C69.8549 34.7342 70.2414 35.533 70.2042 36.369C70.2213 36.9273 70.061 37.477 69.7489 37.9379C69.4369 38.3759 69.0017 38.7109 68.4978 38.9028C69.1534 39.0201 69.7518 39.3522 70.1956 39.8504M62.6515 34.4708V38.5162H66.2074C66.9403 38.562 67.6704 38.3817 68.2945 37.998C69.1277 37.3453 69.2708 36.1399 68.618 35.3096C68.5236 35.1894 68.4148 35.0806 68.2945 34.9861C67.6675 34.6053 66.9374 34.425 66.2074 34.4679H62.6515V34.4708ZM68.8499 43.1744C69.3682 42.8165 69.6573 42.2124 69.6144 41.5825C69.6144 40.1911 68.6066 39.4954 66.5882 39.4954H62.6515V43.684H66.5824C67.3698 43.7355 68.1571 43.558 68.8471 43.1744" fill="white"/>
<path d="M6.85938 8.27974H8.15919V13.8913H6.85938V8.27974ZM8.73466 13.3387L9.17557 12.3596C9.64797 12.7031 10.3551 12.9436 11.0279 12.9436C11.7981 12.9436 12.1102 12.6859 12.1102 12.3424C12.1102 11.2917 8.84632 12.0131 8.84632 9.92885C8.84632 8.97546 9.61647 8.1824 11.2112 8.1824C11.9155 8.1824 12.637 8.35132 13.158 8.68057L12.7572 9.66545C12.2361 9.3677 11.6979 9.22455 11.2026 9.22455C10.4324 9.22455 10.1375 9.51371 10.1375 9.86586C10.1375 10.8994 13.4014 10.1865 13.4014 12.2479C13.4014 13.187 12.6227 13.9886 11.0194 13.9886C10.129 13.9886 9.23283 13.7252 8.73466 13.3387ZM13.6247 11.0855C13.6247 9.41923 14.9245 8.1824 16.6939 8.1824C18.4632 8.1824 19.7631 9.40778 19.7631 11.0855C19.7631 12.7633 18.4575 13.9886 16.6939 13.9886C14.9303 13.9886 13.6247 12.7547 13.6247 11.0855ZM18.4518 11.0855C18.4518 10.0205 17.6988 9.29039 16.6967 9.29039C15.6947 9.29039 14.9417 10.0205 14.9417 11.0855C14.9417 12.1506 15.6947 12.8806 16.6967 12.8806C17.6988 12.8806 18.4518 12.1506 18.4518 11.0855ZM22.1394 7.14026H23.2531L20.6076 14.6929H19.4939L22.1394 7.14026ZM23.2445 8.27974H24.5443V13.8913H23.2445V8.27974ZM29.8982 12.8491V13.8913H25.5521V8.27974H29.7922V9.32189H26.8433V10.5415H29.4487V11.5522H26.8433V12.852H29.8982V12.8491ZM30.2589 11.0855C30.2589 9.39346 31.5587 8.1824 33.3052 8.1824C34.2758 8.1824 35.086 8.53455 35.6128 9.17587L34.7796 9.94603C34.4017 9.51371 33.9293 9.28753 33.3682 9.28753C32.3174 9.28753 31.5731 10.0262 31.5731 11.0827C31.5731 12.1391 32.3174 12.8778 33.3682 12.8778C33.9293 12.8778 34.4017 12.6545 34.7796 12.2135L35.6128 12.9837C35.0831 13.6336 34.2729 13.9858 33.2966 13.9858C31.5559 13.9858 30.2589 12.7747 30.2589 11.0827V11.0855ZM41.9544 12.832V13.8913H37.7143V13.0496L39.8787 11.0053C40.3769 10.5329 40.4628 10.2438 40.4628 9.9718C40.4628 9.53089 40.1593 9.27322 39.5638 9.27322C39.0828 9.27322 38.6734 9.45645 38.4014 9.83437L37.4566 9.22455C37.8889 8.59182 38.6762 8.1824 39.684 8.1824C40.9352 8.1824 41.7683 8.82372 41.7683 9.84296C41.7683 10.3869 41.6166 10.8851 40.8292 11.6152L39.538 12.8348H41.9515L41.9544 12.832ZM46.5639 8.27974V9.12148L44.4796 13.8913H43.0681L45.0808 9.33907H43.2199V10.2524H42.0661V8.27974H46.5639ZM46.8187 11.0855C46.8187 9.23313 47.8437 8.1824 49.2236 8.1824C50.6036 8.1824 51.6286 9.23313 51.6286 11.0855C51.6286 12.9379 50.6093 13.9886 49.2236 13.9886C47.8379 13.9886 46.8187 12.9379 46.8187 11.0855ZM50.323 11.0855C50.323 9.81147 49.8735 9.2818 49.2236 9.2818C48.5737 9.2818 48.1328 9.81147 48.1328 11.0855C48.1328 12.3596 48.5823 12.8892 49.2236 12.8892C49.865 12.8892 50.323 12.3596 50.323 11.0855ZM51.9435 11.0855C51.9435 9.23313 52.9685 8.1824 54.3485 8.1824C55.7284 8.1824 56.7534 9.23313 56.7534 11.0855C56.7534 12.9379 55.7342 13.9886 54.3485 13.9886C52.9628 13.9886 51.9435 12.9379 51.9435 11.0855ZM55.4479 11.0855C55.4479 9.81147 54.9984 9.2818 54.3485 9.2818C53.6986 9.2818 53.2576 9.81147 53.2576 11.0855C53.2576 12.3596 53.7071 12.8892 54.3485 12.8892C54.9898 12.8892 55.4479 12.3596 55.4479 11.0855ZM59.2299 8.27974V13.8913H57.9301V9.32189H56.8078V8.27974H59.2299ZM59.8483 10.2925C59.8483 9.82864 60.1919 9.5223 60.6271 9.5223C61.0623 9.5223 61.4058 9.82578 61.4058 10.2925C61.4058 10.7591 61.0623 11.0769 60.6271 11.0769C60.1919 11.0769 59.8483 10.7477 59.8483 10.2925ZM59.8483 13.1698C59.8483 12.706 60.1919 12.3996 60.6271 12.3996C61.0623 12.3996 61.4058 12.7031 61.4058 13.1698C61.4058 13.6365 61.0623 13.9543 60.6271 13.9543C60.1919 13.9543 59.8483 13.625 59.8483 13.1698ZM65.8607 12.832V13.8913H61.6206V13.0496L63.785 11.0053C64.2832 10.5329 64.3691 10.2438 64.3691 9.9718C64.3691 9.53089 64.0656 9.27322 63.4729 9.27322C62.992 9.27322 62.5825 9.45645 62.3106 9.83437L61.3657 9.22455C61.7981 8.59182 62.5854 8.1824 63.5961 8.1824C64.8472 8.1824 65.6803 8.82372 65.6803 9.84296C65.6803 10.3869 65.5286 10.8851 64.7413 11.6152L63.45 12.8348H65.8636L65.8607 12.832ZM66.0783 11.0855C66.0783 9.23313 67.1033 8.1824 68.4832 8.1824C69.8632 8.1824 70.8882 9.23313 70.8882 11.0855C70.8882 12.9379 69.8689 13.9886 68.4832 13.9886C67.0975 13.9886 66.0783 12.9379 66.0783 11.0855ZM69.5826 11.0855C69.5826 9.81147 69.1332 9.2818 68.4832 9.2818C67.8333 9.2818 67.3924 9.81147 67.3924 11.0855C67.3924 12.3596 67.8419 12.8892 68.4832 12.8892C69.1246 12.8892 69.5826 12.3596 69.5826 11.0855ZM73.3647 8.27974V13.8913H72.0649V9.32189H70.9426V8.27974H73.3647ZM78.166 12.1763C78.166 13.1211 77.4359 13.9886 75.8412 13.9886C75.0568 13.9886 74.2465 13.771 73.6997 13.3874L74.2036 12.3939C74.6273 12.7146 75.2228 12.8978 75.8069 12.8978C76.4568 12.8978 76.8576 12.6344 76.8576 12.1763C76.8576 11.7526 76.5455 11.4863 75.8069 11.4863H75.2142V10.6274L76.368 9.32189H73.9803V8.27974H77.9083V9.12148L76.6429 10.5644C77.6535 10.7248 78.166 11.3489 78.166 12.1763ZM11.3286 21.4554L11.3228 19.0505L10.1433 21.0317H9.72527L8.55143 19.102V21.4554H7.68106V17.4472H8.44836L9.94859 19.938L11.4259 17.4472H12.1875L12.1989 21.4554H11.3286ZM15.7892 20.5965H13.9282L13.5732 21.4554H12.6227L14.4092 17.4472H15.3254L17.1176 21.4554H16.1442L15.7892 20.5965ZM15.4971 19.8922L14.8615 18.3576L14.226 19.8922H15.4971ZM21.2117 17.4472V21.4554H20.4502L18.4518 19.0218V21.4554H17.5356V17.4472H18.3029L20.2956 19.8807V17.4472H21.2117ZM24.802 20.5965H22.941L22.586 21.4554H21.6355L23.422 17.4472H24.3382L26.1304 21.4554H25.157L24.802 20.5965ZM24.51 19.8922L23.8744 18.3576L23.2388 19.8922H24.51ZM29.1996 19.3883H30.0471V21.0145C29.6062 21.3466 28.9992 21.5241 28.4266 21.5241C27.1669 21.5241 26.2392 20.6595 26.2392 19.4513C26.2392 18.2431 27.1668 17.3785 28.4438 17.3785C29.1481 17.3785 29.7321 17.6189 30.1215 18.0713L29.526 18.621C29.234 18.3118 28.8961 18.1687 28.4896 18.1687C27.7108 18.1687 27.1783 18.6897 27.1783 19.4513C27.1783 20.2129 27.7108 20.7339 28.4781 20.7339C28.7301 20.7339 28.9648 20.6881 29.1996 20.5621V19.3883ZM34.0095 20.711V21.4554H30.906V17.4472H33.9351V18.1916H31.8279V19.0619H33.6888V19.7834H31.8279V20.711H34.0095ZM38.3957 21.4554L38.3899 19.0505L37.2104 21.0317H36.7924L35.6185 19.102V21.4554H34.7482V17.4472H35.5154L37.0157 19.938L38.493 17.4472H39.2546L39.266 21.4554H38.3957ZM43.3201 20.711V21.4554H40.2165V17.4472H43.2456V18.1916H41.1384V19.0619H42.9994V19.7834H41.1384V20.711H43.3201ZM47.7349 17.4472V21.4554H46.9733L44.9749 19.0218V21.4554H44.0587V17.4472H44.826L46.8187 19.8807V17.4472H47.7349ZM49.5157 18.203H48.233V17.4472H51.7259V18.203H50.4433V21.4554H49.5157V18.203ZM53.5296 21.0603L53.8446 20.3617C54.1824 20.608 54.6863 20.7797 55.1673 20.7797C55.717 20.7797 55.9403 20.5965 55.9403 20.3503C55.9403 19.6002 53.6098 20.1155 53.6098 18.6267C53.6098 17.9453 54.1595 17.3785 55.299 17.3785C55.8029 17.3785 56.3182 17.4987 56.6904 17.7335L56.4041 18.4378C56.0319 18.2259 55.6483 18.1228 55.2933 18.1228C54.7436 18.1228 54.5317 18.329 54.5317 18.5809C54.5317 19.3196 56.8622 18.81 56.8622 20.2816C56.8622 20.9515 56.3068 21.5241 55.1616 21.5241C54.526 21.5241 53.8847 21.3352 53.5296 21.0603ZM59.3359 20.0353V21.4554H58.4082V20.0239L56.8565 17.4472H57.8414L58.9121 19.228L59.9829 17.4472H60.8933L59.3359 20.0353ZM60.8819 21.0603L61.1968 20.3617C61.5347 20.608 62.0386 20.7797 62.5196 20.7797C63.0693 20.7797 63.2926 20.5965 63.2926 20.3503C63.2926 19.6002 60.9621 20.1155 60.9621 18.6267C60.9621 17.9453 61.5118 17.3785 62.6513 17.3785C63.1551 17.3785 63.6705 17.4987 64.0427 17.7335L63.7564 18.4378C63.3842 18.2259 63.0005 18.1228 62.6455 18.1228C62.0958 18.1228 61.884 18.329 61.884 18.5809C61.884 19.3196 64.2145 18.81 64.2145 20.2816C64.2145 20.9515 63.659 21.5241 62.5138 21.5241C61.8782 21.5241 61.2369 21.3352 60.8819 21.0603ZM65.6231 18.203H64.3404V17.4472H67.8333V18.203H66.5507V21.4554H65.6231V18.203ZM71.435 20.711V21.4554H68.3315V17.4472H71.3606V18.1916H69.2534V19.0619H71.1144V19.7834H69.2534V20.711H71.435ZM75.8212 21.4554L75.8155 19.0505L74.6359 21.0317H74.2179L73.0441 19.102V21.4554H72.1737V17.4472H72.941L74.4412 19.938L75.9185 17.4472H76.6801L76.6915 21.4554H75.8212Z" fill="white"/>
</svg>
