<svg width="50" height="50" viewBox="0 0 50 50" fill="none" xmlns="http://www.w3.org/2000/svg">
<path d="M25.0251 34.0503C32.771 34.0503 39.0503 27.771 39.0503 20.0251C39.0503 12.2793 32.771 6 25.0251 6C17.2793 6 11 12.2793 11 20.0251C11 27.771 17.2793 34.0503 25.0251 34.0503Z" stroke="white" stroke-width="1.5" stroke-miterlimit="10"/>
<path d="M25.025 27.1388C28.9539 27.1388 32.1388 23.9539 32.1388 20.025C32.1388 16.0961 28.9539 12.9111 25.025 12.9111C21.0961 12.9111 17.9111 16.0961 17.9111 20.025C17.9111 23.9539 21.0961 27.1388 25.025 27.1388Z" fill="#4BA4DB"/>
<path d="M25.0254 17.0684C25.8097 17.0684 26.5619 17.3799 27.1166 17.9345C27.6712 18.4892 27.9827 19.2414 27.9827 20.0257" stroke="white" stroke-width="1.5" stroke-miterlimit="10"/>
<path d="M31.8559 36.0107V43.9996L25.0256 39.9242L18.1953 43.9996V36.0107" stroke="white" stroke-width="1.5" stroke-miterlimit="10"/>
</svg>
